<svg width="35" height="33" viewBox="0 0 197 109" fill="none" xmlns="http://www.w3.org/2000/svg">
<path fill-rule="evenodd" clip-rule="evenodd" d="M185.093 0.110001C184.799 0.195504 184.289 0.381979 183.959 0.524522C183.629 0.666947 182.78 0.936564 182.074 1.12375C180.751 1.47414 180.111 1.7205 179.591 2.07868C179.427 2.19218 179.078 2.32043 178.816 2.36401C178.554 2.40747 177.89 2.65264 177.341 2.90879C176.792 3.16482 176.26 3.37445 176.16 3.37445C176.059 3.37445 175.957 3.41661 175.932 3.4681C175.908 3.51959 175.648 3.68918 175.354 3.84495C175.061 4.00083 174.551 4.31403 174.221 4.54089C173.241 5.21452 170.765 7.5049 170.386 8.08853C170.192 8.38626 169.7 9.01666 169.293 9.48952C168.885 9.96239 168.245 10.7207 167.872 11.1748C167.235 11.9487 165.361 13.5667 164.616 13.9858C164.432 14.0889 163.982 14.3685 163.615 14.6069C163.248 14.8454 162.648 15.1786 162.281 15.3475C161.914 15.5164 161.434 15.7875 161.214 15.9503C160.826 16.237 160.822 16.2514 161.07 16.4222C161.562 16.7598 163.898 16.9239 167.751 16.8914C171.061 16.8635 171.328 16.83 174.421 16.0553C176.931 15.4264 178.247 14.8823 180.331 13.6136L181.305 13.0202L181.998 13.2705C182.38 13.4082 183.117 13.6238 183.638 13.7494C184.787 14.0269 185.372 14.2837 185.559 14.5925C185.636 14.7204 185.971 15.0865 186.304 15.4061C186.973 16.0485 187.235 16.4536 187.658 17.4953C188.156 18.7201 188.166 18.976 187.73 19.3456C187.38 19.6428 186.09 19.9932 185.843 19.8582C185.518 19.68 180.595 20.5576 176.688 21.4906C175.695 21.7277 172.715 22.5651 171.553 22.9335C171.076 23.0846 170.205 23.312 169.618 23.4386C168.11 23.7638 167.165 24.0308 166.567 24.3005C165.932 24.5868 164.48 25.0337 163.148 25.3526C162.598 25.4843 161.878 25.6661 161.548 25.7566C160.451 26.0572 159.243 26.1878 158.285 26.1094C156.492 25.9626 151.942 25.265 150.275 24.8813C149.024 24.5932 148.214 24.5692 147.397 24.7961C146.422 25.0674 144.61 25.527 143.405 25.8091C142.781 25.9552 141.851 26.2062 141.337 26.3669C140.824 26.5277 139.953 26.7579 139.403 26.8785C138.853 26.9992 138.136 27.1819 137.811 27.2847C137.485 27.3873 136.826 27.552 136.345 27.6506C135.865 27.7494 135.231 27.9019 134.936 27.9899C134.642 28.0778 133.634 28.2407 132.697 28.3517L130.994 28.5537L129.562 28.1341C128.775 27.9032 127.741 27.6023 127.264 27.4655C126.787 27.3285 125.869 27.0648 125.224 26.8795C124.579 26.6941 123.979 26.4927 123.89 26.432C123.705 26.3054 121.564 25.704 119.993 25.3372C119.406 25.2002 118.311 24.9061 117.559 24.6834C116.807 24.461 115.966 24.2308 115.691 24.1718C114.413 23.8986 110.178 22.8071 107.454 22.0492C106.5 21.7837 105.179 21.4545 104.519 21.3176C103.859 21.1806 102.958 20.9628 102.518 20.8336C101.481 20.5294 99.2341 19.9296 98.3826 19.7296C98.0157 19.6435 96.7851 19.3275 95.6479 19.0274C94.5106 18.7274 92.9851 18.3746 92.2576 18.2432C91.5302 18.1119 90.7798 17.9335 90.5901 17.8468C90.4004 17.76 89.975 17.626 89.6449 17.5488C89.3147 17.4718 88.9026 17.3282 88.7291 17.2297C88.5556 17.1311 87.8594 16.8797 87.182 16.6708C85.9537 16.292 85.9487 16.2916 85.4297 16.5004C84.3358 16.9402 83.5407 17.2871 82.5747 17.7459C82.0244 18.0074 81.4241 18.2601 81.2407 18.3075C81.0572 18.355 78.4159 19.4841 75.371 20.8168C68.4068 23.8648 66.144 24.8438 64.6323 25.4631C63.972 25.7337 63.1215 26.1356 62.7422 26.3563C62.3628 26.5771 62.0158 26.7577 61.9709 26.7577C61.9261 26.7577 61.0143 27.1297 59.9447 27.5844C58.8751 28.0391 57.9852 28.4111 57.967 28.4111C57.9487 28.4111 57.4001 28.6839 56.7475 29.0173C55.6141 29.5963 55.249 29.7767 53.4267 30.6581C52.9865 30.871 52.4671 31.1435 52.2723 31.2635C52.0775 31.3835 51.8782 31.4816 51.8294 31.4816C51.7806 31.4816 51.2955 31.7207 50.7517 32.013C50.2078 32.3053 49.7063 32.5445 49.6374 32.5445C49.5684 32.5445 49.3422 32.6699 49.1349 32.8231C48.9274 32.9764 48.5476 33.1959 48.2908 33.3109C48.034 33.426 47.3157 33.8187 46.6944 34.1838C45.4453 34.9178 45.5584 34.8548 44.0363 35.663C42.4378 36.5117 41.8277 37.0264 41.6143 37.7066C41.4577 38.2057 40.8875 39.3537 40.3655 40.2208C40.2677 40.3832 40.1134 40.7286 40.0224 40.9884C39.9316 41.2482 39.7498 41.6734 39.6185 41.9332C39.1584 42.8439 38.1064 45.2506 37.6826 46.3619C37.4473 46.9789 37.0083 48.0303 36.7069 48.6983C36.4056 49.3663 36.0687 50.1822 35.9583 50.5116C35.662 51.3947 34.3909 53.025 33.75 53.3439C32.8112 53.811 31.6313 55.6911 31.1278 57.5221C30.9492 58.1716 30.694 59.1016 30.5608 59.5888C29.0297 65.1854 28.2093 66.9699 26.1277 69.2315C24.9497 70.5115 23.9186 71.2694 22.3241 72.0274C21.5282 72.4057 20.727 72.7872 20.5436 72.875C20.3602 72.9629 19.3697 73.3646 18.3425 73.7675C17.3153 74.1705 15.9887 74.7054 15.3944 74.9563C13.9439 75.5684 13.0916 75.7971 10.8247 76.1825C9.16992 76.4639 8.69889 76.4991 7.35635 76.4424C4.88858 76.3383 1.83265 75.5487 0.655261 74.711C0.376855 74.5129 0.115524 74.3509 0.0745706 74.3509C0.0334834 74.3509 0 74.5978 0 74.8997C0 75.5118 0.453694 76.7632 0.807071 77.1262C0.933667 77.2561 1.15871 77.575 1.30732 77.8348C1.68858 78.5013 3.36555 80.0698 4.254 80.5908C4.66567 80.8323 5.3312 81.1546 5.733 81.3071C6.1348 81.4597 6.58943 81.6575 6.74337 81.7467C7.44826 82.1556 10.0988 82.795 11.6058 82.9197C12.0093 82.953 12.8696 83.0657 13.5174 83.1698C14.4443 83.3189 15.212 83.3448 17.1192 83.2917C21.367 83.1734 25.0113 82.4795 28.0807 81.2048C28.741 80.9305 29.4914 80.6381 29.7482 80.5549C30.005 80.4718 30.5753 80.1938 31.0155 79.9371C31.4557 79.6804 32.1161 79.3467 32.4829 79.1954C32.8498 79.0441 33.24 78.8554 33.35 78.7759C33.4601 78.6964 33.7684 78.5633 34.035 78.4801C34.5107 78.3315 34.5356 78.3392 35.3529 78.8895C35.8111 79.198 36.4141 79.5217 36.6929 79.6087C38.4403 80.1546 40.2439 81.9684 41.7394 84.6844C42.1686 85.4639 42.566 86.2344 42.6224 86.3968C42.6788 86.5592 43.0882 87.3 43.5322 88.0432C44.1558 89.0871 44.6127 89.6596 45.5409 90.5612C46.9956 91.974 47.4083 92.2692 50.175 93.8771C50.8811 94.2875 51.6526 94.7575 51.8894 94.9216L52.32 95.22L51.3805 95.7729C50.3804 96.3615 49.6232 97.0436 48.4732 98.392C47.8741 99.0944 46.777 99.978 46.5041 99.978C46.4624 99.978 46.1 100.164 45.6985 100.391C45.2971 100.619 44.9117 100.805 44.842 100.805C44.6402 100.805 43.4219 102.106 43.0183 102.753C42.8157 103.078 42.5453 103.477 42.4174 103.639C41.8655 104.34 40.9538 106.369 40.9538 106.897C40.9538 107.133 41.032 107.165 41.7209 107.206C42.1428 107.231 44.0187 107.21 45.8896 107.158C47.7606 107.107 51.0622 107.017 53.2266 106.958C56.4321 106.871 57.465 106.8 58.7961 106.576C60.1641 106.345 60.4302 106.265 60.4302 106.088C60.4302 105.971 60.526 105.678 60.643 105.436C60.76 105.195 60.9726 104.625 61.1154 104.17C61.2581 103.716 61.477 103.158 61.6018 102.93C61.7602 102.642 61.8427 102.131 61.8752 101.236L61.9219 99.9549L62.5745 99.5957C62.9335 99.3982 63.348 99.0713 63.4955 98.8692C64.0917 98.0529 64.2731 97.8357 64.714 97.4105C64.9672 97.1664 65.2925 96.7996 65.437 96.5954C65.5814 96.3912 66.0725 95.78 66.5285 95.2373C66.9845 94.6945 67.5247 94.0488 67.7291 93.8026C67.9335 93.5565 68.2248 93.2376 68.3766 93.094C68.5283 92.9505 68.9177 92.5408 69.2419 92.1836C69.566 91.8264 69.8624 91.5075 69.9006 91.475C69.9387 91.4425 70.2161 91.1237 70.517 90.7664C71.1776 89.9825 73.5588 87.8068 74.07 87.5203C74.5173 87.2696 77.0626 86.6683 79.7733 86.1732C81.3228 85.8901 82.4048 85.6432 83.9754 85.2147C84.6357 85.0345 85.4461 84.8522 85.7763 84.8096C86.916 84.6627 90.9219 83.6605 93.6961 82.8283C94.9806 82.4429 95.3917 82.3669 95.8748 82.4256C96.7344 82.5299 97.3327 82.8175 97.5193 83.2165C97.6084 83.4068 97.7332 83.5625 97.7968 83.5625C97.8603 83.5625 98.0567 83.7618 98.2332 84.0054C98.4097 84.249 98.6859 84.5707 98.8472 84.7204C99.0083 84.8702 99.42 85.3568 99.7619 85.8017C100.104 86.2467 100.534 86.764 100.717 86.9512C100.9 87.1384 101.259 87.5553 101.514 87.8775C101.768 88.1998 102.459 89.0024 103.048 89.6612C104.348 91.1149 105.182 92.4653 105.373 93.4236C105.565 94.3897 105.581 96.7967 105.4 97.2843C105.318 97.5029 105.074 97.9726 104.858 98.328C104.642 98.6834 104.307 99.2399 104.115 99.5647C103.923 99.8894 103.65 100.265 103.508 100.399C103.367 100.533 103.252 100.692 103.251 100.753C103.251 100.814 102.966 101.24 102.618 101.699C100.739 104.177 99.8837 105.352 99.5243 105.948C99.011 106.799 98.5164 108.158 98.6267 108.412C98.6738 108.521 98.9383 108.7 99.2145 108.811C99.6345 108.979 100.12 109.01 102.184 108.998C103.542 108.989 105.823 108.899 107.254 108.796C108.684 108.694 110.635 108.579 111.589 108.541C113.306 108.472 116.091 108.288 116.992 108.184C119.192 107.929 120.559 107.737 120.726 107.661C120.836 107.611 120.982 107.39 121.051 107.17C121.12 106.949 121.249 106.73 121.336 106.682C121.424 106.634 121.538 106.196 121.59 105.708L121.684 104.82L122.773 104.8C123.372 104.789 124.698 104.77 125.72 104.758L127.579 104.735L127.955 104.362C128.162 104.157 128.331 103.913 128.331 103.82C128.331 103.727 128.538 103.234 128.79 102.726C129.043 102.217 129.31 101.47 129.383 101.066C129.457 100.661 129.555 100.276 129.602 100.208C129.649 100.141 129.59 99.9535 129.47 99.7918C129.296 99.5562 129.242 99.0819 129.198 97.4055C129.151 95.614 129.095 95.1663 128.808 94.2917C128.432 93.1444 128.427 93.124 128.449 92.9277C128.457 92.8499 128.929 92.5119 129.498 92.1766C130.067 91.8412 130.682 91.4448 130.865 91.2956C131.205 91.0193 134.176 89.4119 135.868 88.5892C136.382 88.3394 136.982 87.9759 137.202 87.7815C137.422 87.587 138.02 87.248 138.53 87.0281C139.041 86.8082 139.581 86.5272 139.731 86.4037C139.962 86.2133 144.812 83.9248 145.406 83.7258C147.448 83.0422 148.86 82.218 149.475 81.3516C149.85 80.8224 149.875 80.7148 149.875 79.6065C149.875 78.4544 149.863 78.4063 149.371 77.6576C149.094 77.2354 148.633 76.5711 148.346 76.1814C146.612 73.8234 145.852 72.4722 146.065 72.1206C146.131 72.0106 146.355 71.8468 146.563 71.7567C146.771 71.6666 147.24 71.3066 147.607 70.9569C148.75 69.867 149.879 69.8225 152.743 70.7541C154.142 71.2092 156.531 71.8182 158.679 72.2673C161.749 72.9089 162.931 73.1417 168.601 74.2221C170.903 74.6604 171.967 75.0441 172.699 75.6991C173.509 76.424 173.62 77.0749 173.619 81.0825C173.618 84.2498 173.61 84.355 173.269 85.3371C173.077 85.891 172.675 86.6882 172.376 87.1086C171.561 88.2537 170.669 89.9089 170.437 90.7074C170.324 91.0971 170.135 91.974 170.017 92.656C169.774 94.0638 169.502 94.6309 168.545 95.7249C168.175 96.1479 167.742 96.6927 167.584 96.9352C167.425 97.1779 167.037 97.6816 166.722 98.0546C166.408 98.4276 166.03 98.9004 165.883 99.1053C165.406 99.7719 164.567 100.854 164.178 101.304C163.726 101.827 162.748 103.775 162.748 104.152C162.748 104.519 163.623 105.243 164.332 105.464C165.066 105.694 166.693 105.695 168.818 105.469C169.698 105.375 171.709 105.19 173.287 105.058C176.607 104.78 179.811 104.498 181.405 104.343C182.424 104.244 182.566 104.198 183.072 103.796C183.913 103.127 184.228 102.549 184.398 101.364C184.511 100.577 184.508 100.202 184.386 99.7976C184.184 99.1274 184.182 98.4739 184.38 97.9584C184.541 97.542 185.357 96.4114 186.161 95.4903C186.416 95.198 186.715 94.6988 186.825 94.381C186.999 93.8752 187 93.7132 186.834 93.082C186.729 92.6853 186.476 91.9887 186.271 91.5341C185.909 90.727 185.9 90.6528 185.905 88.4045C185.908 87.1379 185.981 85.7827 186.067 85.393C186.451 83.6538 186.622 82.7183 186.75 81.6729C186.825 81.0559 186.983 80.1259 187.1 79.6062C187.217 79.0866 187.397 78.2363 187.5 77.7167C187.602 77.1971 187.773 76.5593 187.878 76.2995C188.109 75.7293 188.621 74.2196 189.097 72.7069C189.289 72.0949 189.567 71.3845 189.715 71.1284C190.157 70.3601 190.629 68.9461 190.629 68.3865C190.629 68.0914 190.504 67.6346 190.344 67.3424C190.095 66.8886 189.871 66.7258 188.576 66.0558C187.761 65.6339 186.433 65.0082 185.626 64.6655C184.819 64.3228 184.004 63.9467 183.815 63.8296C183.626 63.7126 183.236 63.5437 182.948 63.4544C182.463 63.304 181.903 62.9988 180.357 62.0428C179.344 61.4164 177.791 59.9148 177.076 58.8699C176.701 58.3235 176.06 57.4088 175.65 56.8374C174.875 55.7558 174.611 54.9226 174.811 54.1853C174.86 54.007 174.959 53.6485 175.031 53.3886C175.629 51.2464 175.529 48.2137 174.76 45.1809C174.185 42.912 174.277 43.1376 173.092 41.0475C172.404 39.8337 172.125 39.4417 171.495 38.8024C171.27 38.5744 170.97 38.1941 170.829 37.9573C170.592 37.5605 170.588 37.5046 170.781 37.2432C170.897 37.0873 171.343 36.751 171.772 36.4959C172.202 36.2408 172.798 35.8453 173.098 35.6169C173.397 35.3885 174.108 34.8828 174.678 34.4931C175.247 34.1034 176.485 33.2265 177.428 32.5445C179.257 31.222 180.224 30.6612 181.824 29.9951C182.375 29.766 183.125 29.4513 183.492 29.2956C183.859 29.1401 184.729 28.8428 185.426 28.6351C186.123 28.4274 186.964 28.1547 187.294 28.029C187.624 27.9034 188.164 27.7197 188.494 27.6208C188.824 27.5218 189.335 27.3454 189.628 27.2284C189.922 27.1116 190.492 26.8868 190.896 26.7289C191.299 26.571 192.786 25.9457 194.199 25.3391C196.705 24.2637 196.772 24.2252 196.92 23.7887C197.044 23.4231 197.029 23.216 196.84 22.658C195.978 20.1063 193.145 15.2768 191.245 13.1175C189.761 11.432 188.834 10.644 187.772 10.1662C186.207 9.46142 183.825 8.08039 183.825 7.87762C183.825 7.83664 184.218 7.43109 184.699 6.97641C185.179 6.52174 185.704 5.91614 185.866 5.63058C186.222 5.0023 188.065 3.45345 188.895 3.08523C189.225 2.93878 189.93 2.67377 190.461 2.49627C191.527 2.14009 191.839 1.85914 192.092 1.02455C192.344 0.197866 192.19 0.130668 189.99 0.107639C188.984 0.0971282 187.591 0.0583918 186.894 0.0215455C186.019 -0.0246306 185.461 0.00276899 185.093 0.110001ZM86.9769 22.0465C87.3804 22.1833 87.9807 22.3638 88.3109 22.4475C88.641 22.5312 89.2713 22.707 89.7116 22.8381C90.1518 22.9691 91.0222 23.1696 91.6459 23.2833C92.2695 23.397 92.8998 23.5437 93.0466 23.6091C93.1933 23.6745 93.6435 23.7932 94.0471 23.8728C94.4506 23.9525 95.7112 24.2642 96.8485 24.5655C97.9857 24.8669 99.2751 25.1933 99.7139 25.2909C100.825 25.5385 103.901 26.3888 104.392 26.5841C104.615 26.673 105.065 26.7992 105.392 26.8642C105.719 26.9293 106.255 27.0668 106.584 27.1696C106.912 27.2726 108.053 27.5416 109.118 27.7676C110.184 27.9935 111.536 28.309 112.123 28.4689C112.71 28.6287 113.58 28.8635 114.057 28.9907C114.534 29.1179 115.494 29.4072 116.191 29.6338C118.167 30.2759 118.216 30.2904 118.993 30.4687C120.351 30.7805 124.61 32.1536 125.329 32.5119C125.549 32.6215 126.03 32.8612 126.397 33.0445C127.841 33.7663 128.214 33.8773 129.126 33.8562C129.954 33.8369 133.748 33.2146 135.468 32.8159C135.908 32.7138 136.478 32.5901 136.735 32.5409C137.192 32.4535 139.744 31.8248 140.537 31.6044C140.757 31.5432 141.898 31.2789 143.072 31.0171C144.246 30.7553 145.595 30.4508 146.07 30.3405C146.827 30.1648 147.122 30.157 148.471 30.2772C149.316 30.3526 150.369 30.498 150.809 30.6002C151.249 30.7025 152.235 30.8642 152.999 30.9594C153.763 31.0546 155.024 31.2604 155.8 31.4169C158.246 31.9095 158.272 31.9096 159.651 31.4325C160.324 31.1997 160.92 31.0092 160.974 31.0092C161.029 31.0092 161.496 30.8701 162.011 30.7C163.023 30.3659 163.173 30.3129 164.082 29.9669C164.412 29.8411 164.832 29.6999 165.016 29.653C165.199 29.6061 165.532 29.4755 165.754 29.3627C165.977 29.2499 166.517 29.0597 166.955 28.9399C167.393 28.8202 167.871 28.6567 168.017 28.5768C168.164 28.4969 168.554 28.3642 168.885 28.2821C169.215 28.1999 170.911 27.6373 172.654 27.0318C174.397 26.4264 175.86 25.931 175.905 25.931C175.951 25.931 176.326 25.8038 176.738 25.6483C177.763 25.2624 179.172 24.8678 179.086 24.991C179.048 25.0465 178.312 25.4227 177.452 25.8272C176.592 26.2317 175.673 26.6812 175.41 26.8262C175.148 26.9711 173.827 27.5816 172.476 28.1828C171.124 28.784 169.508 29.5514 168.885 29.8881C168.261 30.2249 167.03 30.8826 166.15 31.3498C165.269 31.817 164.159 32.4162 163.682 32.6813C163.205 32.9466 162.312 33.3942 161.697 33.676C161.083 33.9579 160.555 34.2101 160.525 34.2367C160.319 34.4197 161.753 36.7674 162.522 37.5046C162.775 37.747 163.651 39.2072 163.968 39.9145C164.413 40.9056 164.47 41.8897 164.271 45.1485C164.169 46.8227 164.027 48.8567 163.955 49.6686C163.883 50.4805 163.822 52.4866 163.819 54.1268L163.815 57.1087L165.316 57.1178C167.637 57.1319 168.587 57.2842 169.485 57.7864C170.002 58.0758 171.01 59.1288 171.939 60.3506C172.189 60.6786 172.729 61.3379 173.14 61.8158C173.551 62.2938 174.023 62.8518 174.188 63.0559C174.354 63.2599 174.564 63.5066 174.656 63.6041C178.075 67.2453 177.98 67.1758 180.392 67.7926C181.626 68.1082 181.754 68.1724 182.84 69.02L183.987 69.9143L183.896 70.6268C183.809 71.3183 183.598 72.1627 183.058 73.9966C182.605 75.5321 182.066 78.6911 181.828 81.2006C181.745 82.0774 181.549 83.6983 181.393 84.8025C181.045 87.2615 180.982 91.3386 181.275 92.5055C181.488 93.3567 181.442 93.5111 180.574 94.858C180.091 95.6078 179.94 95.7427 179.226 96.0665C178.784 96.2669 178.153 96.5648 177.824 96.7282C177.365 96.9569 177.035 97.0256 176.401 97.0256C175.052 97.0256 175.154 97.2631 175.154 94.1215V91.3607L175.533 90.6797C175.741 90.3053 176.097 89.7331 176.324 89.4083C177.292 88.0256 177.552 87.5641 177.943 86.5303C178.343 85.4717 178.356 85.3745 178.356 83.3244C178.356 81.1949 178.331 80.9416 177.806 77.7167C177.647 76.7424 177.479 75.5998 177.432 75.1776C177.386 74.7554 177.281 74.3037 177.2 74.1738C177.119 74.0439 177.008 73.539 176.954 73.0518C176.837 71.9985 176.721 71.6898 176.38 71.5285C176.024 71.36 173.155 70.6918 171.964 70.5001C171.42 70.4126 170.669 70.2639 170.296 70.1697C169.923 70.0755 169.318 69.9621 168.951 69.9176C168.584 69.8732 167.924 69.7578 167.484 69.661C167.044 69.5642 166.078 69.3653 165.338 69.219C164.599 69.0728 163.728 68.8654 163.404 68.7583C163.08 68.6511 162.352 68.4868 161.786 68.3933C161.22 68.2996 160.646 68.1703 160.51 68.106C160.375 68.0417 159.847 67.9058 159.338 67.8038C157.181 67.3721 154.55 66.6856 152.743 66.0832C152.34 65.9486 151.663 65.7334 151.239 65.6049C149.89 65.1954 147.067 63.267 145.296 61.5451C145.1 61.3545 144.679 60.956 144.36 60.6594C143.708 60.0524 143.077 59.2351 142.556 58.3231C141.941 57.2456 142.049 56.5631 143.348 53.3296C143.518 52.9074 143.726 52.3228 143.811 52.0305C143.895 51.7382 144.163 50.9942 144.406 50.3772C144.648 49.7601 145.009 48.8301 145.207 48.3105C145.905 46.4837 146.788 45.2706 147.741 44.8303C150.006 43.7833 151.409 42.9624 151.409 42.6836C151.409 42.4084 150.738 41.8288 150.057 41.5156C149.79 41.3929 149.187 41.2381 148.717 41.1715C148.246 41.105 147.573 40.9738 147.221 40.88C146.485 40.6837 146.438 40.6939 145.264 41.3026C144.398 41.7518 143.233 42.7491 140.548 45.3384C139.141 46.695 136.013 49.4364 135.068 50.1416C134.701 50.4151 133.689 51.2308 132.819 51.954C131.95 52.6773 131.016 53.4023 130.746 53.5651C130.475 53.7278 129.849 54.2026 129.355 54.6199C128.861 55.0374 128.323 55.4601 128.16 55.5593C127.997 55.6586 127.804 55.8041 127.731 55.8827C127.569 56.0559 124.897 57.8995 124.327 58.2306C124.104 58.3605 122.887 59.0827 121.624 59.8355C120.36 60.5882 118.936 61.41 118.459 61.6617C117.982 61.9134 116.907 62.533 116.069 63.0388C115.231 63.5445 114.466 63.9583 114.368 63.9583C114.271 63.9583 113.966 64.1349 113.691 64.3508C113.125 64.7946 112.576 65.1393 112.436 65.1393C112.384 65.1393 112.307 64.8338 112.265 64.4603C112.08 62.8221 111.354 59.6719 110.931 58.6635C110.513 57.6701 109.104 55.4216 108.524 54.8221C105.67 51.8757 104.707 50.4154 103.995 47.9562C103.788 47.2417 103.574 46.604 103.518 46.539C103.463 46.4741 103.322 46.1278 103.206 45.7696C102.955 44.9941 102.384 44.4685 101.535 44.2328C100.995 44.0828 100.938 44.0879 100.754 44.3012C100.272 44.8597 100.209 45.2588 100.054 48.7238C99.9372 51.3342 99.8352 52.4446 99.6467 53.1525C99.5082 53.6721 99.3603 54.3717 99.3178 54.707C99.2753 55.0424 99.1536 55.6801 99.0473 56.1241C98.7498 57.3675 98.6498 57.2666 100.417 57.5074C101.279 57.625 102.315 57.8271 102.718 57.9565C103.122 58.086 103.731 58.2609 104.072 58.3451C104.794 58.5234 105.92 59.1717 105.92 59.4095C105.92 59.4995 106.111 59.8451 106.344 60.1778C106.728 60.725 106.778 60.9049 106.865 62.0676C106.918 62.7744 106.999 63.4079 107.046 63.4755C107.093 63.5429 107.187 64.0379 107.255 64.5754C107.323 65.1129 107.465 66.0841 107.571 66.7336C107.676 67.3832 107.889 68.7915 108.043 69.8632C108.197 70.9349 108.443 72.3698 108.59 73.0518C108.736 73.7339 109.007 75.0624 109.191 76.0043C109.639 78.2989 109.966 79.5918 110.297 80.3739C110.664 81.243 111.041 82.3447 111.387 83.5625C111.686 84.6142 112.102 85.8141 112.719 87.4007C112.922 87.9203 113.164 88.5846 113.259 88.8769C113.353 89.1692 113.639 89.7537 113.894 90.1759C114.402 91.0168 115.135 92.9867 115.389 94.1883C115.477 94.609 115.658 95.1404 115.79 95.3693C116.503 96.6081 117.531 99.6837 117.328 99.9739C117.295 100.022 116.65 100.094 115.895 100.134C115.141 100.173 113.775 100.26 112.859 100.327C111.943 100.394 111.087 100.419 110.958 100.383C110.829 100.346 110.558 100.068 110.356 99.7635C109.989 99.2119 109.989 99.2048 110.029 97.2618C110.058 95.8785 110.008 94.9727 109.855 94.1395C109.737 93.494 109.609 92.9218 109.571 92.8678C109.534 92.814 109.475 92.5028 109.442 92.1764C109.386 91.6302 109.168 90.9152 108.834 90.1759C108.76 90.0136 108.429 89.2961 108.098 88.5816C107.507 87.307 107.495 87.2543 107.456 85.7863C107.421 84.471 107.364 84.1496 106.983 83.1291C106.429 81.6442 106.21 81.2668 105.148 79.9657C104.089 78.6695 103.188 77.8074 102.651 77.5783C102.431 77.4841 102.102 77.3329 101.92 77.2419C101.631 77.0983 101.546 77.1008 101.271 77.2606C101.077 77.3728 100.616 77.4516 100.09 77.4625C99.2885 77.4792 99.2038 77.456 98.9218 77.1437C98.7545 76.9584 98.5006 76.6129 98.3578 76.376C98.2149 76.1391 97.853 75.5466 97.5535 75.0595C96.9594 74.093 96.2206 72.0213 96.0371 70.808C95.6919 68.5256 95.3358 66.5511 94.9934 65.0212C94.7561 63.9601 93.6363 61.6955 93.1852 61.3641C92.9146 61.1652 92.8521 61.2296 92.3849 62.1869C91.9978 62.9801 91.0896 64.2025 90.5945 64.5967C90.439 64.7204 90.3119 64.8931 90.3119 64.9805C90.3119 65.0679 90.273 65.1393 90.2257 65.1393C89.9315 65.1393 88.5891 64.1719 87.7735 63.3722C87.1954 62.8054 86.5799 62.3312 86.2246 62.179C85.9005 62.04 85.3911 61.7458 85.0927 61.5252C84.7944 61.3046 84.4869 61.124 84.4094 61.124C84.3321 61.124 83.2623 60.2077 82.0325 59.0878L79.7966 57.0517L79.1811 57.3163C78.8425 57.4619 78.4806 57.5811 78.3768 57.5811C78.0367 57.5811 78.0298 57.792 78.3493 58.4316C78.5225 58.7784 78.7726 59.3533 78.9052 59.7092C79.2723 60.6952 79.9251 61.8217 80.7858 62.9551C81.6104 64.041 82.9139 65.4117 83.4107 65.7153C83.5745 65.8154 84.0885 66.1735 84.5528 66.5109C85.0172 66.8484 86.0077 67.4005 86.7539 67.7379C87.5002 68.0753 88.4488 68.5321 88.8619 68.753C89.2751 68.9739 89.7724 69.1546 89.9672 69.1546C90.262 69.1546 90.3678 69.2488 90.5979 69.7156C90.9865 70.504 91.0992 70.8674 91.2487 71.8118C91.3206 72.2665 91.4674 73.0636 91.5749 73.5833C91.6824 74.1029 91.7882 74.9347 91.8101 75.4315L91.8498 76.3351L90.914 76.4088C87.8725 76.6481 87.0558 76.633 85.9194 76.3164C83.3795 75.6086 82.646 75.0921 80.9337 72.8048C80.1576 71.7681 80.0447 71.6706 79.2003 71.3052C77.9556 70.7668 73.5517 69.7594 72.3992 69.7495C72.1077 69.747 71.478 69.5699 70.9063 69.3298C69.4502 68.718 68.2263 67.5998 66.8368 65.6117C66.451 65.0596 65.9442 64.3422 65.7106 64.0174C65.477 63.6926 65.1002 63.0815 64.873 62.6593C63.4232 59.9644 63.0613 59.3421 62.7035 58.9289C61.2116 57.2061 58.8973 55.492 56.8022 54.5579L55.8672 54.141L54.999 54.4735C54.4375 54.6884 54.0907 54.8983 54.0172 55.0676C53.8794 55.3853 54.1768 56.0892 54.6303 56.5182C55.6256 57.46 56.5839 58.2898 57.1669 58.7145C57.5321 58.9805 57.9982 59.4704 58.2027 59.803C58.5656 60.3931 58.5689 60.4155 58.3419 60.7363C58.2139 60.9171 58.0161 61.1478 57.9024 61.249C57.4082 61.6885 56.2975 63.3571 56.1506 63.8805C55.9205 64.701 56.073 66.4103 56.4789 67.5603C57.0137 69.0755 57.3694 70.0024 57.6342 70.5718C57.7702 70.8641 57.9807 71.4752 58.102 71.9299C58.2233 72.3846 58.3775 72.8162 58.4447 72.889C58.5118 72.9618 58.6554 73.2853 58.7635 73.6078C58.8717 73.9305 59.1716 74.5351 59.4297 74.9517C59.688 75.3682 60.1538 76.1285 60.4649 76.6413C61.2001 77.8531 61.2789 77.9692 61.5427 78.2271C61.6645 78.3463 61.7642 78.499 61.7642 78.5663C61.7642 78.6336 61.8883 78.8283 62.04 78.999C62.6963 79.7377 62.04 80.3207 60.4126 80.4447C56.8431 80.7168 56.9393 80.6683 56.8545 82.2402C56.7984 83.2781 56.8016 83.291 57.2216 83.7144C57.8467 84.3447 58.9627 85.8352 58.9638 86.0411C58.9642 86.1393 59.0857 86.3791 59.2338 86.574C59.4634 86.8762 59.49 87.0412 59.4157 87.6959C59.3218 88.5233 58.9443 89.5095 58.5854 89.8657C58.295 90.1539 55.1256 91.5061 54.957 91.4138C54.7573 91.3046 54.8033 90.851 55.0469 90.527C55.1676 90.3664 55.5599 89.9657 55.9186 89.6366L56.5708 89.0383L56.236 88.7509C56.0518 88.5928 55.7796 88.3706 55.631 88.2569C55.4412 88.1115 55.361 87.9054 55.361 87.562C55.361 86.0131 54.3767 85.3622 53.2805 86.1861C52.533 86.748 51.894 87.5668 51.8918 87.9653C51.8897 88.3989 51.5787 89.0191 51.3091 89.1277C50.8691 89.3053 49.5584 88.733 49.1299 88.1762C48.2359 87.0145 47.7091 86.1936 47.4176 85.5081C47.0976 84.7554 46.9596 84.4701 46.171 82.9293C45.9429 82.4834 45.7562 82.0733 45.7562 82.0177C45.7562 81.962 45.4966 81.5561 45.1793 81.1156C44.8619 80.6753 44.3182 79.8631 43.9708 79.311C42.9376 77.669 41.6495 76.6222 38.8194 75.1246C38.3425 74.8722 37.9258 74.6466 37.8932 74.6234C37.8608 74.6 38.1672 74.2767 38.5744 73.905C38.9815 73.5332 39.5426 72.8835 39.8214 72.4613C40.1002 72.0392 40.454 71.5674 40.6077 71.4129C40.8584 71.161 42.4002 70.4537 42.6987 70.4537C42.7642 70.4537 42.9049 70.6383 43.0115 70.864C43.2683 71.408 44.1107 72.1714 44.6902 72.3852C46.582 73.0829 47.6944 72.5496 48.4534 70.581C48.8463 69.5619 48.8897 69.3152 48.8903 68.0918C48.8911 66.8112 48.8703 66.7053 48.5263 66.2368C48.0614 65.6038 47.8179 65.4943 46.6903 65.4106C46.1053 65.3671 45.7456 65.2849 45.7021 65.1847C45.621 64.9975 45.8332 64.5063 46.6148 63.0726C47.8585 60.7915 48.0288 60.4435 48.3493 59.5297C48.8223 58.1802 49.1054 57.0413 49.1734 56.2126C49.2218 55.6223 49.1578 55.3067 48.8166 54.4506C48.5878 53.877 48.3092 53.284 48.1973 53.1328C47.946 52.7932 46.2121 51.6278 45.3754 51.2362C45.0345 51.0767 44.6657 50.8813 44.5556 50.8021C44.3502 50.6541 42.5392 49.8675 42.1211 49.7446C41.7582 49.638 41.8397 49.332 42.5031 48.3105C42.8406 47.7908 43.2012 47.1577 43.3043 46.9035C43.4076 46.6493 43.5451 46.3836 43.61 46.313C43.6748 46.2425 43.9246 45.7596 44.1653 45.2399C44.4058 44.7203 44.6745 44.2154 44.7623 44.118C44.8502 44.0206 44.9987 43.7283 45.0922 43.4685C45.1858 43.2087 45.4035 42.811 45.576 42.5849C45.7485 42.3587 45.8896 42.1145 45.8896 42.0422C45.8896 41.9699 46.0028 41.8201 46.1411 41.7093C46.2794 41.5985 46.4307 41.3391 46.4773 41.133C46.675 40.258 47.7779 39.3912 49.9891 38.3726C50.4858 38.1437 51.2523 37.7622 51.6925 37.5249C52.9754 36.8327 53.4586 36.6004 55.2943 35.7926C56.2481 35.3729 57.8345 34.6564 58.8196 34.2003C59.8046 33.7443 60.6554 33.3712 60.7102 33.3712C60.7651 33.3712 61.4898 33.0348 62.3209 32.6237C63.152 32.2125 64.4322 31.6215 65.1659 31.3105C65.8996 30.9993 66.5995 30.6676 66.7211 30.5732C66.8428 30.479 67.3816 30.2435 67.9187 30.05C68.4556 29.8566 68.9864 29.6259 69.0982 29.5376C69.2098 29.4491 70.3219 28.9131 71.5692 28.3463C72.8164 27.7796 74.7776 26.8449 75.9271 26.2691C77.0767 25.6935 78.0853 25.2224 78.1686 25.2224C78.2518 25.2224 78.5409 25.0896 78.8108 24.9272C79.0808 24.7648 79.3662 24.632 79.4452 24.632C79.5242 24.632 79.9455 24.4391 80.3814 24.2034C80.8172 23.9677 81.8343 23.4854 82.6414 23.1315C83.4484 22.7778 84.4389 22.3344 84.8425 22.1461C85.7232 21.7354 86.0185 21.7216 86.9769 22.0465ZM39.1218 56.5104C40.3506 56.9946 41.552 57.6868 41.885 58.1023C41.9935 58.2378 42.2937 58.5559 42.552 58.8091C42.9331 59.1827 43.0202 59.3606 43.0142 59.7539C43.0042 60.4186 42.4114 61.6481 41.3656 63.173C40.8823 63.8778 40.2273 64.8562 39.91 65.3473C39.5926 65.8383 39.0378 66.6168 38.6772 67.0773C37.8992 68.0707 36.1339 70.3415 35.6852 70.9261C34.9788 71.8464 32.5667 74.0557 31.6921 74.5833C30.3671 75.383 29.0176 76.1506 28.8347 76.2088C28.7136 76.2473 28.4642 76.3701 28.2808 76.4816C27.229 77.1209 23.2986 78.3055 21.4437 78.5424C20.6918 78.6384 19.6704 78.7709 19.1737 78.8368C18.6772 78.9027 18.0845 78.9567 17.8568 78.9567C17.5109 78.9567 17.469 78.9286 17.6028 78.786C17.6907 78.6922 18.0733 78.5257 18.4528 78.4159C19.1341 78.2192 21.4617 77.2393 23.2783 76.3845C25.5596 75.3113 27.2767 74.0603 29.713 71.6967C30.5764 70.8591 30.9851 70.3309 31.6216 69.2308C32.067 68.4608 32.4852 67.7434 32.5511 67.6365C32.7616 67.295 33.6168 65.3299 33.6168 65.188C33.6168 65.1127 33.7329 64.8187 33.8747 64.5343C34.1344 64.0136 34.539 62.7708 35.1583 60.5926C35.3428 59.943 35.5798 59.2256 35.6847 58.9983C35.7896 58.7709 35.9379 58.2687 36.0139 57.8821C36.1502 57.1895 36.6471 56.3835 37.074 56.1624C37.4593 55.9629 37.9401 56.0447 39.1218 56.5104ZM139.958 74.1903C140.35 74.6216 141.001 75.5191 141.404 76.1848C141.808 76.8504 142.206 77.4675 142.289 77.5558C142.372 77.6443 142.601 78.0009 142.798 78.3483C143.138 78.9476 143.144 78.9912 142.928 79.2034C142.802 79.3263 142.423 79.5695 142.085 79.7437C141.51 80.0401 140.638 80.6004 140.233 80.9331C139.347 81.6603 134.601 84.1395 133.333 84.5373C133.113 84.6064 132.686 84.8114 132.385 84.993C131.897 85.2861 127.682 87.0407 126.463 87.4577C126.206 87.5456 125.935 87.6579 125.861 87.7072C125.786 87.7566 125.216 87.9838 124.594 88.2121C123.971 88.4404 122.952 88.8152 122.328 89.0453C121.061 89.5125 120.53 89.5703 120.349 89.2607C120.129 88.8853 120.043 87.9765 120.199 87.6826C120.342 87.4141 121.765 86.3563 122.922 85.6579C123.534 85.2888 123.841 85.0851 125.897 83.6806C127.677 82.4653 128.402 82.0079 130.105 81.0258C130.825 80.6111 131.535 80.1342 131.685 79.9661C131.834 79.7977 132.001 79.369 132.056 79.012C132.129 78.5349 132.267 78.2469 132.58 77.9221C132.813 77.6791 133.145 77.2945 133.317 77.0671C133.915 76.279 135.913 74.8596 137.483 74.1083C137.915 73.9013 138.388 73.6586 138.532 73.569C138.992 73.2844 139.228 73.3871 139.958 74.1903ZM120.835 74.5412C121.007 74.9237 121.218 75.3004 121.304 75.3784C121.39 75.4563 122.031 75.821 122.728 76.1887C124.232 76.9824 125.603 78.1481 125.403 78.4629C125.287 78.6444 124.09 79.6525 122.395 80.9954C122.028 81.2861 121.517 81.6173 121.261 81.7316C120.706 81.9786 119.712 82.7117 118.332 83.8925C117.14 84.9127 116.939 85.0307 116.746 84.825C116.669 84.7425 116.418 84.0926 116.189 83.3807C115.96 82.6687 115.686 81.8206 115.58 81.4958C115.473 81.171 115.362 80.7883 115.332 80.6453C115.302 80.5022 115.152 79.9177 114.999 79.3462C114.705 78.2508 114.308 75.768 114.405 75.6291C114.437 75.5841 114.956 75.3827 115.56 75.1816C116.164 74.9804 116.922 74.7037 117.245 74.5664C117.567 74.4293 118.317 74.1409 118.912 73.9255C120.215 73.4531 120.368 73.5019 120.835 74.5412ZM64.2393 90.4133C63.9053 90.9481 63.6318 91.4479 63.6318 91.5239C63.6318 91.5998 63.3592 91.9256 63.0259 92.2476C62.6927 92.5697 62.066 93.338 61.6332 93.9551C61.2004 94.5721 60.7077 95.2458 60.5382 95.452C60.3687 95.6581 59.99 96.1854 59.6965 96.6239C58.6444 98.1957 57.3228 99.1542 56.2111 99.1519C55.3541 99.1502 54.1567 98.1845 54.3484 97.6497C54.4484 97.3708 56.2217 95.7696 56.9066 95.3399C57.1938 95.1596 57.7289 94.8107 58.0957 94.5642C58.4626 94.3178 59.0329 93.9712 59.363 93.7941C61.1319 92.8449 62.7451 91.6487 63.365 90.8265C63.7874 90.2665 64.7206 89.329 64.7925 89.3926C64.8224 89.4192 64.5735 89.8785 64.2393 90.4133Z" fill="black"/>
</svg>
