<svg width="844" height="402" viewBox="0 0 844 402" fill="none" xmlns="http://www.w3.org/2000/svg">
<path fill-rule="evenodd" clip-rule="evenodd" d="M528.353 0.244421C528.08 0.532673 519.596 1.94025 509.5 3.3716C475.37 8.20847 454.385 14.0339 438.547 23.0668C433.472 25.9612 425.369 29.8105 420.541 31.6212C415.712 33.4329 407.966 36.4482 403.327 38.3233C378.152 48.4973 375.416 48.8628 330.66 48.0297C301.128 47.481 292.271 47.6385 281.277 48.9103C262.198 51.1183 256.166 50.9083 240.93 47.5077C198.529 38.044 171.701 51.9662 143.936 97.8457C133.424 115.216 127.625 128.468 123.047 145.573C119.09 160.363 115.464 167.649 110.295 171.2C97.0795 180.277 86.5962 179.599 74.9538 168.914C71.6238 165.858 66.3389 161.759 63.2093 159.806C60.0796 157.852 54.6162 153.269 51.0668 149.62C37.566 135.74 19.8211 132.625 6.06624 141.72C-1.8521 146.956 -2.03269 153.118 5.60782 157.307C11.0246 160.275 13.1332 162.341 16.1279 167.607C49.3829 226.105 120.936 210.666 145.795 139.629C158.249 104.041 179.391 78.411 196.739 77.8712C206.601 77.5631 206.655 80.9874 196.951 91.3724C184.438 104.764 180.252 122.739 184.674 144.087C186.317 152.011 186.317 152.011 183.222 164.393C179.419 179.609 178.418 190.519 180.086 198.567C182.772 211.526 182.819 211.246 176.941 217.461C167.799 227.127 155.006 235.154 144.84 237.605C130.907 240.962 128.385 245.972 126.532 273.966C124.39 306.355 117.956 318.402 96.7045 329.821C88.0876 334.45 87.391 335.33 88.9052 339.666C90.0632 342.981 88.1143 346.675 83.148 350.575C71.3509 359.837 59.2382 388.56 64.9586 393.706C68.0635 396.501 79.0906 396.339 87.5527 393.375C90.9721 392.178 96.4743 390.829 99.7795 390.377C105.569 389.587 106.005 389.318 111.702 383.017C114.954 379.421 120.168 374.926 123.289 373.03C134.356 366.309 137.376 361.044 139.84 344.179C143.174 321.348 149.574 305.664 160.499 293.555C163.918 289.765 168.859 283.885 171.476 280.489C176.701 273.711 179.838 271.772 190.968 268.443C200.447 265.607 203.138 264.207 216.349 255.238C233.227 243.778 243.18 239.294 245.511 242.098C247.371 244.336 245.419 246.762 237.182 252.446C212.177 269.702 222.36 283.019 279.293 307.518C309.641 320.579 315.787 324.612 318.036 332.953C318.635 335.173 320.486 338.23 322.149 339.748C325.173 342.506 325.173 342.506 324.093 348.79C319.333 376.456 324.052 401.702 333.124 397.101C336.365 395.457 361.493 370.467 363.43 366.961C365.8 362.67 366.453 331.902 364.281 326.844C360.215 317.375 349.728 308.489 333.316 300.603C327.071 297.602 316.903 292.717 310.722 289.748C285.139 277.46 284.685 267.873 309.074 255.029C318.355 250.141 321.311 247.653 333.005 234.881C342.947 224.025 349.798 226.044 361.229 243.198C363.063 245.952 367.742 251.685 371.625 255.937C375.508 260.189 379.569 265.727 380.649 268.244C383.931 275.886 384.328 275.825 395.297 266.006C405.424 256.943 406.704 256.674 424.266 259.92C443.68 263.509 465.452 265.016 479.684 263.755C494.227 262.466 494.429 262.526 502.173 270.428C510.448 278.872 510.924 278.989 540.261 279.821C569.084 280.639 571.861 282.033 565.669 292.58C559.206 303.589 548.851 310.261 538.468 310.105C531.033 309.994 531.033 309.994 527.103 314.117C523.534 317.864 522.76 318.226 518.663 318.072C505.627 317.579 483.485 344.743 483.716 360.944C483.803 367.066 509.861 367.275 521.856 361.251C527.781 358.274 531.587 357.082 537.14 356.46C548.849 355.149 553.367 351.233 567.82 329.878C579.729 312.28 580.194 312.15 593.216 322.778C607.243 334.226 618.536 351.428 629.069 377.393C629.959 379.588 630.719 379.869 636.473 380.139C644.274 380.504 645.046 381.086 646.403 387.616C649.368 401.874 651.143 402.542 684.102 401.803C723.582 400.918 727.496 399.5 715.56 390.408C712.742 388.26 706.863 382.975 702.497 378.662C695.56 371.808 693.803 370.609 688.561 369.144C679.354 366.571 674.308 362.821 668.036 353.884C664.987 349.541 658.348 342.015 653.282 337.159C633.169 317.877 632.553 317.033 630.549 305.989C629.912 302.477 628.091 295.572 626.501 290.645C621.059 273.775 623.387 267.257 635.645 265.044C641.076 264.065 643.861 265.587 645.771 270.578C646.938 273.628 648.901 276.011 652.389 278.611C658.207 282.947 658.622 285.238 655.311 294.743C650.4 308.845 650.68 313.225 656.613 315.142C660.941 316.54 661.266 316.948 663.81 324.161C668.43 337.267 684.602 333.599 716.662 312.177C727.837 304.71 727.861 304.7 736.507 303.883C741.269 303.433 746.967 302.806 749.17 302.489C753.645 301.844 752.844 300.924 758.576 313.295C768.085 333.817 789.565 345.267 809.167 340.263C837.489 333.031 842.311 328.585 822.121 328.318C794.704 327.956 781.585 307.12 788.455 274.85C792.176 257.372 791.168 258.218 810.913 256.023C850.541 251.619 853.495 249.214 825.539 244.115C797.863 239.065 796.027 238.06 795.768 227.79C795.605 221.327 795.359 220.656 791.218 215.378C788.81 212.309 785.039 207.271 782.835 204.183C780.505 200.915 777.215 197.727 774.97 196.557C772.847 195.452 771.005 194.115 770.876 193.586C770.747 193.057 770.365 191.376 770.027 189.851C769.563 187.754 768.333 186.616 764.98 185.182C760.545 183.284 760.545 183.284 760.545 177.473C760.545 168.58 750.816 138.015 742.51 120.809C739.689 114.966 735.628 108.146 726.145 93.3198C724.315 90.4601 718.643 83.7739 713.538 78.4615C708.435 73.1502 698.189 62.1184 690.77 53.9463C656.36 16.0467 637.428 6.12238 595.332 3.91344C585.508 3.39736 575.685 2.54252 573.502 2.01158C569.167 0.958623 529.158 -0.607455 528.353 0.244421Z" fill="black"/>
</svg>
